<svg width="50" height="50" viewBox="0 0 50 50" fill="none" xmlns="http://www.w3.org/2000/svg">
  <defs>
    <linearGradient id="dravaIconGradient" x1="0%" y1="0%" x2="100%" y2="100%">
      <stop offset="0%" style="stop-color:#3B82F6" />
      <stop offset="100%" style="stop-color:#4F46E5" />
    </linearGradient>
  </defs>

  <!-- Base Circle -->
  <circle cx="25" cy="25" r="23" fill="url(#dravaIconGradient)" />

  <!-- Card Icon -->
  <rect x="15" y="15" width="20" height="15" rx="2.5" fill="white" fill-opacity="0.9" />
  <path d="M17 22h16v2H17z" fill="url(#dravaIconGradient)" />
  <path d="M17 26h8v2h-8z" fill="url(#dravaIconGradient)" />

  <!-- Chip -->
  <path d="M17 17h4v3a1 1 0 01-1 1h-2a1 1 0 01-1-1v-3z" fill="url(#dravaIconGradient)" />

  <!-- "PZ" Overlay -->
  <path d="M25.5 35H18V38H33C33 36.3333 32.6667 35 32 34C31.3333 33 30.1667 32.3333 28.5 32H25.5V35Z" fill="white" fill-opacity="0.7" />
  <path d="M33 38H28L33 33V38Z" fill="white" fill-opacity="0.7" />
</svg>
